<svg xmlns="http://www.w3.org/2000/svg" xmlns:xlink="http://www.w3.org/1999/xlink" width="500" zoomAndPan="magnify" viewBox="0 0 375 225" height="300" preserveAspectRatio="xMidYMid meet" version="1.0"><defs><g/><clipPath id="23d558913c"><path d="M 164 81 L 251 81 L 251 140.792969 L 164 140.792969 Z M 164 81 " clip-rule="nonzero"/></clipPath><clipPath id="7520d718e0"><path d="M 169.050781 85.050781 L 193.800781 85.050781 L 193.800781 109.800781 L 169.050781 109.800781 Z M 169.050781 85.050781 " clip-rule="nonzero"/></clipPath><clipPath id="e082fdcfd0"><path d="M 170.699219 102.074219 C 172.273438 90.300781 174.75 88.875 176.851562 87.824219 C 178.875 86.773438 181.125 85.726562 183.449219 86.023438 C 186.375 86.398438 191.699219 88.949219 192.824219 91.425781 C 193.800781 93.601562 192.824219 98.023438 191.175781 99.523438 C 189.523438 101.023438 183.226562 101.25 182.773438 100.5 C 182.476562 100.050781 184.125 97.875 184.574219 97.949219 C 184.949219 98.023438 185.324219 99.375 185.476562 100.273438 C 185.625 101.550781 185.324219 103.875 184.875 105.074219 C 184.574219 105.976562 184.125 106.5 183.449219 107.101562 C 182.476562 107.925781 180.675781 109.050781 179.175781 109.273438 C 177.675781 109.5 175.726562 109.199219 174.375 108.449219 C 173.023438 107.699219 171.675781 106.273438 171.074219 104.851562 C 170.476562 103.425781 170.25 101.550781 170.625 100.050781 C 171 98.550781 171.976562 96.898438 173.175781 95.925781 C 174.375 94.949219 176.398438 94.351562 177.675781 94.199219 C 178.574219 94.050781 179.25 94.199219 180.148438 94.5 C 181.351562 94.949219 183.226562 96.074219 184.125 97.273438 C 185.023438 98.550781 185.550781 100.648438 185.625 101.925781 C 185.699219 102.824219 185.550781 103.5 185.175781 104.324219 C 184.648438 105.523438 183.226562 107.324219 182.175781 108.148438 C 181.425781 108.75 180.824219 108.976562 179.925781 109.125 C 178.648438 109.351562 176.550781 109.425781 175.125 108.824219 C 173.699219 108.226562 172.425781 107.101562 171.449219 105.601562 C 170.25 103.726562 169.050781 100.5 169.050781 98.023438 C 169.050781 95.625 169.949219 93.074219 171.226562 91.050781 C 172.574219 88.949219 174.898438 86.550781 177.226562 85.800781 C 179.476562 85.050781 182.550781 85.949219 184.949219 86.550781 C 187.199219 87.148438 191.324219 88.5 191.25 89.175781 C 191.175781 90 181.949219 89.023438 180.976562 90.824219 C 180.074219 92.398438 183.523438 96.226562 183.976562 98.324219 C 184.273438 99.75 184.351562 100.875 184.199219 102.074219 C 184.050781 103.125 183.675781 104.25 183.074219 105.074219 C 182.476562 105.976562 181.574219 106.726562 180.675781 107.25 C 179.699219 107.773438 178.5 108.074219 177.449219 108.074219 C 176.398438 108.074219 175.199219 107.773438 174.300781 107.324219 C 173.324219 106.800781 172.425781 106.050781 171.824219 105.148438 C 171.226562 104.25 170.699219 102.074219 170.699219 102.074219 " clip-rule="nonzero"/></clipPath><clipPath id="7207b3c957"><path d="M 170.101562 97.050781 L 185 97.050781 L 185 112 L 170.101562 112 Z M 170.101562 97.050781 " clip-rule="nonzero"/></clipPath><clipPath id="fe9027c524"><path d="M 172.726562 109.273438 C 171 106.425781 170.625 104.550781 170.851562 103.199219 C 171.074219 101.851562 172.199219 100.273438 173.023438 99.449219 C 173.625 98.851562 174.074219 98.550781 174.824219 98.25 C 175.949219 97.875 177.824219 97.574219 179.175781 97.875 C 180.523438 98.175781 182.023438 99.375 182.773438 100.199219 C 183.375 100.800781 183.601562 101.476562 183.824219 102.148438 C 184.050781 102.824219 184.273438 103.425781 184.273438 104.25 C 184.199219 105.375 183.824219 107.25 183 108.375 C 182.175781 109.5 180.523438 110.476562 179.476562 110.925781 C 178.726562 111.226562 178.125 111.300781 177.300781 111.226562 C 176.175781 111.074219 174.226562 110.398438 173.25 109.726562 C 172.574219 109.273438 172.199219 108.675781 171.824219 108.074219 C 171.449219 107.476562 171.074219 106.949219 170.925781 106.125 C 170.699219 105 170.773438 103.050781 171.300781 101.773438 C 171.824219 100.5 173.25 99.226562 174.226562 98.550781 C 174.898438 98.101562 175.425781 97.875 176.25 97.800781 C 177.375 97.648438 179.476562 97.949219 180.523438 98.398438 C 181.273438 98.699219 181.800781 99 182.324219 99.675781 C 183.148438 100.648438 184.199219 102.675781 184.351562 104.023438 C 184.5 105.148438 184.199219 106.199219 183.824219 107.175781 C 183.449219 108.148438 182.773438 109.125 181.875 109.800781 C 180.75 110.625 178.800781 111.375 177.300781 111.300781 C 175.800781 111.226562 172.875 109.425781 172.875 109.425781 " clip-rule="nonzero"/></clipPath><clipPath id="439e0fbd72"><path d="M 178.273438 87.300781 L 197 87.300781 L 197 101.550781 L 178.273438 101.550781 Z M 178.273438 87.300781 " clip-rule="nonzero"/></clipPath><clipPath id="7007ee40c6"><path d="M 186.300781 87.300781 C 192.675781 88.273438 193.125 88.5 193.726562 89.101562 C 194.550781 89.925781 195.675781 91.648438 196.050781 92.773438 C 196.273438 93.523438 196.273438 94.199219 196.199219 94.949219 C 196.125 95.699219 196.050781 96.375 195.601562 97.125 C 195 98.175781 193.875 99.601562 192.675781 100.273438 C 191.476562 100.949219 189.601562 101.175781 188.398438 101.101562 C 187.574219 101.023438 186.976562 100.875 186.300781 100.425781 C 185.324219 99.824219 183.898438 98.25 183.300781 97.273438 C 182.851562 96.523438 182.699219 95.925781 182.625 95.175781 C 182.550781 94.5 182.476562 93.824219 182.699219 93 C 183 91.875 183.824219 90.148438 184.875 89.25 C 185.925781 88.351562 187.800781 87.675781 188.925781 87.523438 C 189.75 87.375 190.351562 87.449219 191.101562 87.75 C 192.226562 88.125 193.949219 89.25 194.773438 90.148438 C 195.375 90.75 195.601562 91.273438 195.824219 92.101562 C 196.125 93.226562 196.351562 95.175781 195.898438 96.449219 C 195.449219 97.726562 194.25 99.148438 193.351562 99.898438 C 192.675781 100.425781 192.226562 100.648438 191.324219 100.875 C 189.601562 101.25 185.324219 101.101562 183.449219 100.5 C 182.25 100.125 181.425781 99.449219 180.75 98.699219 C 180 97.949219 179.476562 96.898438 179.175781 95.851562 C 178.875 94.875 178.800781 93.675781 179.023438 92.625 C 179.25 91.574219 179.773438 90.523438 180.449219 89.699219 C 181.125 88.875 182.101562 88.125 183.074219 87.75 C 184.050781 87.375 186.300781 87.300781 186.300781 87.300781 " clip-rule="nonzero"/></clipPath><clipPath id="df62b93618"><path d="M 166.125 83 L 194.625 83 L 194.625 107.925781 L 166.125 107.925781 Z M 166.125 83 " clip-rule="nonzero"/></clipPath><clipPath id="ae49484746"><path d="M 185.25 99.675781 C 182.25 98.023438 180.523438 92.851562 180.449219 92.925781 C 180.375 93 182.925781 97.199219 182.851562 99.375 C 182.773438 101.699219 181.574219 105.523438 179.625 106.574219 C 177.300781 107.773438 171 106.351562 169.050781 104.476562 C 167.476562 102.976562 167.398438 100.050781 167.476562 97.800781 C 167.550781 95.476562 167.925781 92.851562 169.425781 90.675781 C 171.375 87.898438 176.699219 84.449219 179.625 83.476562 C 181.425781 82.875 183.226562 83.023438 184.5 83.324219 C 185.398438 83.550781 186.074219 83.925781 186.75 84.375 C 187.425781 84.824219 188.023438 85.273438 188.476562 86.101562 C 189.148438 87.226562 189.976562 89.175781 189.976562 90.75 C 189.976562 92.25 189.074219 94.273438 188.324219 95.324219 C 187.800781 96.074219 187.351562 96.523438 186.523438 96.976562 C 185.398438 97.574219 183.148438 98.175781 181.800781 98.175781 C 180.898438 98.175781 180.226562 98.101562 179.398438 97.648438 C 178.199219 97.050781 176.476562 95.476562 175.726562 94.425781 C 175.199219 93.675781 174.976562 93 174.898438 92.101562 C 174.75 90.824219 174.824219 88.648438 175.5 87.300781 C 176.175781 85.949219 177.523438 84.523438 178.875 83.851562 C 180.226562 83.175781 182.175781 82.875 183.675781 83.175781 C 185.175781 83.476562 186.976562 84.601562 187.949219 85.5 C 188.625 86.101562 189 86.625 189.300781 87.523438 C 189.75 88.726562 190.125 90.898438 189.75 92.398438 C 189.375 93.898438 188.101562 95.625 187.125 96.523438 C 186.449219 97.125 185.851562 97.425781 185.023438 97.726562 C 183.898438 98.175781 182.550781 98.550781 180.824219 98.625 C 177.898438 98.699219 170.398438 95.476562 169.199219 96.824219 C 168.300781 97.875 171.601562 103.273438 171.226562 103.5 C 170.851562 103.726562 167.476562 100.050781 166.875 97.875 C 166.273438 95.699219 166.726562 92.476562 167.925781 90.449219 C 169.125 88.425781 171.824219 86.699219 174.074219 85.800781 C 176.324219 84.898438 178.800781 84.675781 181.425781 84.824219 C 184.574219 85.050781 189.375 86.101562 191.550781 87.675781 C 192.976562 88.726562 193.875 90.226562 194.25 91.648438 C 194.625 93.148438 194.398438 95.101562 193.726562 96.449219 C 193.050781 97.800781 191.476562 99.148438 190.050781 99.675781 C 188.625 100.199219 185.25 99.675781 185.25 99.675781 " clip-rule="nonzero"/></clipPath><clipPath id="d4ce2289d7"><path d="M 164 81 L 251 81 L 251 140.792969 L 164 140.792969 Z M 164 81 " clip-rule="nonzero"/></clipPath></defs><rect x="-37.5" width="450" fill="#ffffff" y="-22.5" height="270" fill-opacity="1"/><rect x="-37.5" width="450" fill="#ffffff" y="-22.5" height="270" fill-opacity="1"/><rect x="-37.5" width="450" fill="#ffffff" y="-22.5" height="270" fill-opacity="1"/><g clip-path="url(#23d558913c)"><path fill="#231f20" d="M 242.777344 112.195312 C 243.421875 110.023438 243.746094 107.804688 243.742188 105.539062 C 243.765625 104.136719 243.664062 102.75 243.441406 101.367188 C 243.21875 99.988281 242.875 98.636719 242.410156 97.316406 C 241.945312 96 241.371094 94.730469 240.679688 93.515625 C 239.992188 92.296875 239.203125 91.152344 238.308594 90.078125 C 237.417969 89 236.4375 88.015625 235.367188 87.113281 C 234.300781 86.214844 233.164062 85.414062 231.953125 84.71875 C 230.742188 84.023438 229.480469 83.4375 228.167969 82.96875 C 226.855469 82.496094 225.511719 82.144531 224.132812 81.914062 C 222.757812 81.683594 221.375 81.578125 219.980469 81.59375 C 218.585938 81.609375 217.203125 81.75 215.832031 82.011719 C 214.460938 82.277344 213.125 82.660156 211.824219 83.160156 C 210.523438 83.664062 209.273438 84.277344 208.082031 85.003906 C 206.890625 85.726562 205.769531 86.554688 204.722656 87.476562 C 203.675781 88.402344 202.722656 89.414062 201.855469 90.511719 C 200.988281 91.605469 200.222656 92.769531 199.5625 94.003906 C 198.902344 95.234375 198.359375 96.515625 197.925781 97.847656 L 197.25 97.847656 C 197.238281 96.953125 197.152344 96.0625 196.988281 95.183594 C 196.824219 94.304688 196.585938 93.445312 196.269531 92.605469 C 195.957031 91.769531 195.570312 90.964844 195.117188 90.195312 C 194.660156 89.421875 194.144531 88.699219 193.5625 88.019531 C 192.980469 87.339844 192.347656 86.714844 191.65625 86.148438 C 190.964844 85.578125 190.234375 85.074219 189.453125 84.636719 C 188.675781 84.199219 187.867188 83.828125 187.023438 83.53125 C 186.183594 83.234375 185.320312 83.011719 184.441406 82.867188 C 183.558594 82.722656 182.671875 82.652344 181.78125 82.664062 C 180.886719 82.671875 180.003906 82.757812 179.125 82.925781 C 178.25 83.089844 177.390625 83.328125 176.554688 83.644531 C 175.722656 83.960938 174.917969 84.347656 174.152344 84.800781 C 173.382812 85.257812 172.660156 85.777344 171.980469 86.359375 C 171.304688 86.941406 170.683594 87.582031 170.117188 88.273438 C 169.550781 88.964844 169.046875 89.699219 168.609375 90.480469 C 168.171875 91.261719 167.804688 92.074219 167.507812 92.917969 C 167.210938 93.761719 166.992188 94.625 166.84375 95.507812 C 166.699219 96.390625 166.632812 97.28125 166.640625 98.175781 C 166.652344 99.070312 166.738281 99.960938 166.902344 100.839844 C 167.066406 101.71875 167.308594 102.578125 167.621094 103.417969 C 167.933594 104.253906 168.320312 105.058594 168.773438 105.828125 C 169.230469 106.597656 169.746094 107.324219 170.328125 108.003906 C 170.910156 108.683594 171.546875 109.308594 172.234375 109.875 C 172.925781 110.441406 173.660156 110.945312 174.4375 111.386719 C 173.597656 111.671875 172.789062 112.03125 172.011719 112.460938 C 171.238281 112.890625 170.503906 113.386719 169.816406 113.945312 C 169.125 114.503906 168.488281 115.121094 167.910156 115.792969 C 167.328125 116.464844 166.808594 117.179688 166.355469 117.945312 C 165.898438 118.707031 165.515625 119.503906 165.199219 120.335938 C 164.886719 121.167969 164.648438 122.019531 164.480469 122.894531 C 164.316406 123.769531 164.230469 124.652344 164.222656 125.539062 C 164.210938 126.429688 164.28125 127.3125 164.425781 128.191406 C 164.570312 129.066406 164.792969 129.925781 165.089844 130.761719 C 165.386719 131.601562 165.753906 132.40625 166.191406 133.179688 C 166.632812 133.953125 167.132812 134.679688 167.699219 135.363281 C 168.269531 136.050781 168.890625 136.679688 169.566406 137.253906 C 170.246094 137.828125 170.964844 138.335938 171.734375 138.78125 C 172.5 139.230469 173.300781 139.605469 174.132812 139.910156 C 174.96875 140.214844 175.820312 140.441406 176.695312 140.597656 C 177.566406 140.75 178.449219 140.824219 179.335938 140.824219 L 235.847656 140.824219 C 236.691406 140.824219 237.527344 140.753906 238.355469 140.617188 C 239.1875 140.476562 240 140.269531 240.792969 139.992188 C 241.589844 139.71875 242.355469 139.378906 243.09375 138.972656 C 243.835938 138.570312 244.535156 138.105469 245.195312 137.585938 C 245.859375 137.0625 246.472656 136.492188 247.039062 135.867188 C 247.605469 135.242188 248.117188 134.574219 248.570312 133.867188 C 249.027344 133.15625 249.417969 132.414062 249.75 131.636719 C 250.082031 130.859375 250.347656 130.0625 250.546875 129.242188 C 250.742188 128.421875 250.871094 127.589844 250.933594 126.75 C 250.992188 125.90625 250.984375 125.066406 250.902344 124.226562 C 250.824219 123.386719 250.671875 122.558594 250.457031 121.742188 C 250.238281 120.929688 249.953125 120.136719 249.605469 119.367188 C 249.253906 118.601562 248.84375 117.867188 248.371094 117.167969 C 247.898438 116.46875 247.371094 115.816406 246.792969 115.207031 C 246.210938 114.59375 245.582031 114.035156 244.910156 113.53125 C 244.234375 113.027344 243.523438 112.582031 242.777344 112.195312 Z M 169.992188 98.167969 C 169.96875 97.375 170.023438 96.589844 170.152344 95.804688 C 170.285156 95.023438 170.492188 94.261719 170.773438 93.519531 C 171.054688 92.777344 171.40625 92.066406 171.824219 91.394531 C 172.246094 90.722656 172.726562 90.097656 173.269531 89.519531 C 173.8125 88.941406 174.40625 88.421875 175.050781 87.964844 C 175.695312 87.503906 176.378906 87.109375 177.101562 86.785156 C 177.824219 86.460938 178.570312 86.207031 179.34375 86.03125 C 180.113281 85.851562 180.894531 85.753906 181.6875 85.730469 C 182.476562 85.707031 183.265625 85.761719 184.042969 85.890625 C 184.824219 86.023438 185.585938 86.230469 186.324219 86.511719 C 187.066406 86.792969 187.769531 87.148438 188.441406 87.566406 C 189.113281 87.988281 189.734375 88.472656 190.3125 89.015625 C 190.886719 89.5625 191.40625 90.15625 191.863281 90.804688 C 192.324219 91.453125 192.714844 92.136719 193.039062 92.859375 C 193.363281 93.585938 193.613281 94.335938 193.789062 95.109375 C 193.96875 95.882812 194.066406 96.664062 194.089844 97.457031 C 193.246094 97.492188 192.410156 97.601562 191.585938 97.78125 C 190.757812 97.960938 189.957031 98.214844 189.175781 98.539062 C 188.394531 98.863281 187.644531 99.253906 186.933594 99.707031 C 186.21875 100.164062 185.550781 100.679688 184.929688 101.253906 C 184.308594 101.828125 183.742188 102.453125 183.226562 103.125 C 182.714844 103.800781 182.265625 104.515625 181.878906 105.269531 C 181.492188 106.023438 181.175781 106.804688 180.925781 107.617188 C 180.675781 108.425781 180.5 109.25 180.398438 110.09375 C 179.683594 109.996094 178.984375 109.835938 178.300781 109.613281 C 177.613281 109.390625 176.953125 109.109375 176.320312 108.765625 C 175.683594 108.425781 175.085938 108.027344 174.523438 107.578125 C 173.960938 107.128906 173.441406 106.632812 172.964844 106.089844 C 172.492188 105.542969 172.070312 104.960938 171.699219 104.34375 C 171.328125 103.722656 171.015625 103.074219 170.761719 102.398438 C 170.507812 101.722656 170.316406 101.03125 170.1875 100.320312 C 170.058594 99.609375 169.992188 98.890625 169.992188 98.167969 Z M 235.847656 137.59375 L 179.335938 137.59375 C 178.527344 137.632812 177.722656 137.59375 176.921875 137.472656 C 176.125 137.351562 175.34375 137.148438 174.585938 136.867188 C 173.828125 136.585938 173.105469 136.234375 172.417969 135.804688 C 171.730469 135.375 171.09375 134.882812 170.507812 134.324219 C 169.921875 133.765625 169.394531 133.152344 168.933594 132.488281 C 168.472656 131.820312 168.082031 131.117188 167.761719 130.371094 C 167.441406 129.625 167.199219 128.855469 167.039062 128.0625 C 166.875 127.265625 166.792969 126.464844 166.792969 125.652344 C 166.792969 124.839844 166.875 124.039062 167.039062 123.242188 C 167.199219 122.449219 167.441406 121.679688 167.761719 120.933594 C 168.082031 120.1875 168.472656 119.484375 168.933594 118.816406 C 169.394531 118.152344 169.921875 117.539062 170.507812 116.980469 C 171.09375 116.421875 171.730469 115.929688 172.417969 115.5 C 173.105469 115.074219 173.828125 114.71875 174.585938 114.4375 C 175.34375 114.15625 176.125 113.953125 176.921875 113.832031 C 177.722656 113.710938 178.527344 113.671875 179.335938 113.710938 L 181.816406 113.710938 C 182.121094 113.695312 182.390625 113.589844 182.621094 113.390625 C 182.921875 113.257812 183.164062 113.050781 183.34375 112.777344 C 183.523438 112.503906 183.617188 112.199219 183.621094 111.871094 C 183.621094 111.617188 183.554688 111.378906 183.425781 111.160156 C 183.453125 110.726562 183.503906 110.296875 183.582031 109.867188 C 183.660156 109.441406 183.761719 109.019531 183.886719 108.605469 C 184.015625 108.1875 184.164062 107.78125 184.339844 107.386719 C 184.511719 106.988281 184.710938 106.601562 184.929688 106.226562 C 185.148438 105.851562 185.386719 105.492188 185.648438 105.144531 C 185.910156 104.796875 186.191406 104.46875 186.492188 104.15625 C 186.789062 103.84375 187.105469 103.546875 187.441406 103.269531 C 187.777344 102.996094 188.125 102.738281 188.488281 102.503906 C 188.851562 102.269531 189.230469 102.054688 189.617188 101.867188 C 190.007812 101.675781 190.40625 101.507812 190.816406 101.363281 C 191.222656 101.21875 191.640625 101.101562 192.0625 101.003906 C 192.484375 100.910156 192.910156 100.839844 193.339844 100.792969 C 193.773438 100.75 194.203125 100.730469 194.636719 100.734375 C 195.070312 100.742188 195.5 100.773438 195.929688 100.828125 C 196.359375 100.886719 196.785156 100.96875 197.203125 101.074219 C 197.625 101.179688 198.035156 101.3125 198.441406 101.464844 C 198.882812 101.667969 199.320312 101.667969 199.761719 101.464844 C 200.179688 101.25 200.445312 100.917969 200.566406 100.464844 C 200.886719 99.285156 201.308594 98.144531 201.832031 97.042969 C 202.355469 95.941406 202.972656 94.894531 203.683594 93.902344 C 204.394531 92.910156 205.191406 91.992188 206.066406 91.144531 C 206.941406 90.296875 207.886719 89.53125 208.902344 88.855469 C 209.914062 88.179688 210.980469 87.597656 212.097656 87.113281 C 213.214844 86.628906 214.367188 86.246094 215.550781 85.96875 C 216.738281 85.691406 217.941406 85.523438 219.15625 85.464844 C 220.371094 85.402344 221.582031 85.453125 222.792969 85.609375 C 224 85.769531 225.183594 86.035156 226.34375 86.40625 C 227.503906 86.777344 228.621094 87.25 229.695312 87.824219 C 230.769531 88.398438 231.785156 89.0625 232.742188 89.820312 C 233.695312 90.578125 234.578125 91.414062 235.382812 92.332031 C 236.1875 93.246094 236.90625 94.226562 237.535156 95.273438 C 238.164062 96.316406 238.695312 97.410156 239.128906 98.554688 C 239.5625 99.695312 239.890625 100.867188 240.113281 102.066406 C 240.335938 103.265625 240.449219 104.476562 240.457031 105.699219 C 240.453125 108.101562 240.035156 110.425781 239.199219 112.679688 C 239.128906 112.878906 239.101562 113.082031 239.109375 113.292969 C 239.121094 113.503906 239.167969 113.707031 239.253906 113.898438 C 239.34375 114.09375 239.460938 114.261719 239.613281 114.40625 C 239.765625 114.554688 239.9375 114.667969 240.132812 114.746094 C 240.769531 115 241.382812 115.308594 241.964844 115.667969 C 242.550781 116.027344 243.101562 116.433594 243.613281 116.886719 C 244.128906 117.34375 244.601562 117.839844 245.027344 118.375 C 245.457031 118.910156 245.835938 119.480469 246.167969 120.082031 C 246.496094 120.6875 246.773438 121.3125 246.996094 121.960938 C 247.21875 122.613281 247.382812 123.277344 247.492188 123.957031 C 247.597656 124.636719 247.648438 125.320312 247.636719 126.007812 C 247.628906 126.695312 247.558594 127.375 247.429688 128.050781 C 247.304688 128.726562 247.117188 129.386719 246.878906 130.03125 C 246.636719 130.671875 246.339844 131.292969 245.992188 131.882812 C 245.644531 132.476562 245.25 133.035156 244.804688 133.558594 C 244.359375 134.082031 243.875 134.5625 243.347656 135.003906 C 242.820312 135.441406 242.257812 135.832031 241.664062 136.175781 C 241.070312 136.515625 240.449219 136.804688 239.804688 137.039062 C 239.160156 137.273438 238.5 137.449219 237.824219 137.570312 C 237.148438 137.691406 236.46875 137.753906 235.785156 137.753906 Z M 235.847656 137.59375 " fill-opacity="1" fill-rule="nonzero"/></g><g fill="#000000" fill-opacity="1"><g transform="translate(11.434977, 80.444616)"><g><path d="M 32.90625 0 L 26.640625 -21.984375 L 20.375 0 L 10.453125 0 L -0.71875 -39.171875 L 9.21875 -39.171875 L 15.90625 -12.296875 L 16.140625 -12.296875 L 23.265625 -39.171875 L 30.015625 -39.171875 L 37.125 -12.296875 L 37.375 -12.296875 L 44.0625 -39.171875 L 53.9375 -39.171875 L 42.78125 0 Z M 32.90625 0 "/></g></g></g><g fill="#000000" fill-opacity="1"><g transform="translate(62.296239, 80.444616)"><g><path d="M 27.5 -11.015625 L 9.828125 -11.015625 C 9.828125 -9.304688 10.378906 -8.039062 11.484375 -7.21875 C 12.597656 -6.394531 13.800781 -5.984375 15.09375 -5.984375 C 16.457031 -5.984375 17.535156 -6.164062 18.328125 -6.53125 C 19.117188 -6.894531 20.019531 -7.613281 21.03125 -8.6875 L 27.109375 -5.65625 C 24.578125 -1.40625 20.367188 0.71875 14.484375 0.71875 C 10.804688 0.71875 7.65625 -0.539062 5.03125 -3.0625 C 2.40625 -5.582031 1.09375 -8.613281 1.09375 -12.15625 C 1.09375 -15.695312 2.40625 -18.734375 5.03125 -21.265625 C 7.65625 -23.804688 10.804688 -25.078125 14.484375 -25.078125 C 18.347656 -25.078125 21.488281 -23.957031 23.90625 -21.71875 C 26.332031 -19.488281 27.546875 -16.300781 27.546875 -12.15625 C 27.546875 -11.582031 27.53125 -11.203125 27.5 -11.015625 Z M 10.0625 -15.671875 L 19.328125 -15.671875 C 19.140625 -16.929688 18.640625 -17.898438 17.828125 -18.578125 C 17.023438 -19.265625 15.988281 -19.609375 14.71875 -19.609375 C 13.320312 -19.609375 12.210938 -19.242188 11.390625 -18.515625 C 10.566406 -17.785156 10.125 -16.835938 10.0625 -15.671875 Z M 10.0625 -15.671875 "/></g></g></g><g fill="#000000" fill-opacity="1"><g transform="translate(88.557934, 80.444616)"><g><path d="M 4.515625 -3.015625 C 2.234375 -5.503906 1.09375 -8.550781 1.09375 -12.15625 C 1.09375 -15.757812 2.234375 -18.8125 4.515625 -21.3125 C 6.796875 -23.820312 9.691406 -25.078125 13.203125 -25.078125 C 16.429688 -25.078125 19.085938 -24.0625 21.171875 -22.03125 L 21.171875 -24.359375 L 29.578125 -24.359375 L 29.578125 0 L 21.265625 0 L 21.265625 -2.75 L 21.171875 -2.75 C 19.085938 -0.4375 16.429688 0.71875 13.203125 0.71875 C 9.691406 0.71875 6.796875 -0.523438 4.515625 -3.015625 Z M 11.65625 -16.28125 C 10.5625 -15.207031 10.015625 -13.832031 10.015625 -12.15625 C 10.015625 -10.476562 10.535156 -9.109375 11.578125 -8.046875 C 12.628906 -6.984375 14.007812 -6.453125 15.71875 -6.453125 C 17.363281 -6.453125 18.71875 -6.988281 19.78125 -8.0625 C 20.84375 -9.144531 21.375 -10.507812 21.375 -12.15625 C 21.375 -13.832031 20.828125 -15.207031 19.734375 -16.28125 C 18.640625 -17.363281 17.300781 -17.90625 15.71875 -17.90625 C 14.101562 -17.90625 12.75 -17.363281 11.65625 -16.28125 Z M 11.65625 -16.28125 "/></g></g></g><g fill="#000000" fill-opacity="1"><g transform="translate(118.618791, 80.444616)"><g><path d="M 4.28125 -24.359375 L 4.28125 -33.421875 L 12.671875 -33.421875 L 12.671875 -24.359375 L 17.8125 -24.359375 L 17.8125 -17.953125 L 12.671875 -17.953125 L 12.671875 -10.203125 C 12.671875 -7.960938 13.304688 -6.84375 14.578125 -6.84375 C 14.890625 -6.84375 15.21875 -6.90625 15.5625 -7.03125 C 15.914062 -7.15625 16.1875 -7.28125 16.375 -7.40625 L 16.671875 -7.59375 L 18.75 -0.8125 C 16.945312 0.207031 14.890625 0.71875 12.578125 0.71875 C 10.992188 0.71875 9.632812 0.441406 8.5 -0.109375 C 7.363281 -0.671875 6.5 -1.414062 5.90625 -2.34375 C 5.320312 -3.28125 4.90625 -4.265625 4.65625 -5.296875 C 4.40625 -6.328125 4.28125 -7.425781 4.28125 -8.59375 L 4.28125 -17.953125 L 0.765625 -17.953125 L 0.765625 -24.359375 Z M 4.28125 -24.359375 "/></g></g></g><g fill="#000000" fill-opacity="1"><g transform="translate(135.002673, 80.444616)"><g><path d="M 2.84375 0 L 2.84375 -40.84375 L 11.25 -40.84375 L 11.25 -21.796875 L 11.34375 -21.796875 C 13.53125 -23.984375 15.859375 -25.078125 18.328125 -25.078125 C 19.535156 -25.078125 20.726562 -24.914062 21.90625 -24.59375 C 23.09375 -24.28125 24.234375 -23.789062 25.328125 -23.125 C 26.421875 -22.457031 27.304688 -21.515625 27.984375 -20.296875 C 28.671875 -19.078125 29.015625 -17.660156 29.015625 -16.046875 L 29.015625 0 L 20.609375 0 L 20.609375 -13.765625 C 20.609375 -15.035156 20.203125 -16.144531 19.390625 -17.09375 C 18.585938 -18.039062 17.535156 -18.515625 16.234375 -18.515625 C 14.972656 -18.515625 13.828125 -18.023438 12.796875 -17.046875 C 11.765625 -16.066406 11.25 -14.972656 11.25 -13.765625 L 11.25 0 Z M 2.84375 0 "/></g></g></g><g fill="#000000" fill-opacity="1"><g transform="translate(164.018761, 80.444616)"><g><path d="M 27.5 -11.015625 L 9.828125 -11.015625 C 9.828125 -9.304688 10.378906 -8.039062 11.484375 -7.21875 C 12.597656 -6.394531 13.800781 -5.984375 15.09375 -5.984375 C 16.457031 -5.984375 17.535156 -6.164062 18.328125 -6.53125 C 19.117188 -6.894531 20.019531 -7.613281 21.03125 -8.6875 L 27.109375 -5.65625 C 24.578125 -1.40625 20.367188 0.71875 14.484375 0.71875 C 10.804688 0.71875 7.65625 -0.539062 5.03125 -3.0625 C 2.40625 -5.582031 1.09375 -8.613281 1.09375 -12.15625 C 1.09375 -15.695312 2.40625 -18.734375 5.03125 -21.265625 C 7.65625 -23.804688 10.804688 -25.078125 14.484375 -25.078125 C 18.347656 -25.078125 21.488281 -23.957031 23.90625 -21.71875 C 26.332031 -19.488281 27.546875 -16.300781 27.546875 -12.15625 C 27.546875 -11.582031 27.53125 -11.203125 27.5 -11.015625 Z M 10.0625 -15.671875 L 19.328125 -15.671875 C 19.140625 -16.929688 18.640625 -17.898438 17.828125 -18.578125 C 17.023438 -19.265625 15.988281 -19.609375 14.71875 -19.609375 C 13.320312 -19.609375 12.210938 -19.242188 11.390625 -18.515625 C 10.566406 -17.785156 10.125 -16.835938 10.0625 -15.671875 Z M 10.0625 -15.671875 "/></g></g></g><g fill="#000000" fill-opacity="1"><g transform="translate(190.280452, 80.444616)"><g><path d="M 2.84375 0 L 2.84375 -24.359375 L 11.25 -24.359375 L 11.25 -20.84375 L 11.34375 -20.84375 C 11.40625 -20.96875 11.507812 -21.125 11.65625 -21.3125 C 11.800781 -21.507812 12.109375 -21.84375 12.578125 -22.3125 C 13.054688 -22.789062 13.5625 -23.21875 14.09375 -23.59375 C 14.632812 -23.976562 15.332031 -24.320312 16.1875 -24.625 C 17.039062 -24.925781 17.910156 -25.078125 18.796875 -25.078125 C 19.722656 -25.078125 20.628906 -24.945312 21.515625 -24.6875 C 22.398438 -24.4375 23.046875 -24.1875 23.453125 -23.9375 L 24.125 -23.546875 L 20.609375 -16.421875 C 19.566406 -17.316406 18.109375 -17.765625 16.234375 -17.765625 C 15.222656 -17.765625 14.351562 -17.539062 13.625 -17.09375 C 12.894531 -16.644531 12.378906 -16.101562 12.078125 -15.46875 C 11.785156 -14.84375 11.570312 -14.304688 11.4375 -13.859375 C 11.3125 -13.421875 11.25 -13.078125 11.25 -12.828125 L 11.25 0 Z M 2.84375 0 "/></g></g></g><g fill="#000000" fill-opacity="1"><g transform="translate(211.555744, 80.444616)"><g><path d="M 2.84375 -17.375 L 18.140625 -17.375 L 18.140625 -10.109375 L 2.84375 -10.109375 Z M 2.84375 -17.375 "/></g></g></g><g fill="#000000" fill-opacity="1"><g transform="translate(11.434977, 125.559609)"><g><path d="M 2.84375 -39.171875 L 15 -39.171875 C 18.675781 -39.171875 21.601562 -38.382812 23.78125 -36.8125 C 25.96875 -35.25 27.0625 -32.710938 27.0625 -29.203125 C 27.0625 -25.273438 25.429688 -22.472656 22.171875 -20.796875 C 27.742188 -19.816406 30.53125 -16.523438 30.53125 -10.921875 C 30.53125 -7.628906 29.390625 -4.984375 27.109375 -2.984375 C 24.828125 -0.992188 21.695312 0 17.71875 0 L 2.84375 0 Z M 11.78125 -23.84375 L 12.484375 -23.84375 C 14.484375 -23.84375 15.972656 -24.1875 16.953125 -24.875 C 17.929688 -25.570312 18.421875 -26.710938 18.421875 -28.296875 C 18.421875 -30.960938 16.441406 -32.296875 12.484375 -32.296875 L 11.78125 -32.296875 Z M 11.78125 -6.890625 L 14.578125 -6.890625 C 18.941406 -6.890625 21.125 -8.34375 21.125 -11.25 C 21.125 -12.988281 20.578125 -14.238281 19.484375 -15 C 18.398438 -15.757812 16.765625 -16.140625 14.578125 -16.140625 L 11.78125 -16.140625 Z M 11.78125 -6.890625 "/></g></g></g><g fill="#000000" fill-opacity="1"><g transform="translate(40.688512, 125.559609)"><g><path d="M 4.515625 -3.015625 C 2.234375 -5.503906 1.09375 -8.550781 1.09375 -12.15625 C 1.09375 -15.757812 2.234375 -18.8125 4.515625 -21.3125 C 6.796875 -23.820312 9.691406 -25.078125 13.203125 -25.078125 C 16.429688 -25.078125 19.085938 -24.0625 21.171875 -22.03125 L 21.171875 -24.359375 L 29.578125 -24.359375 L 29.578125 0 L 21.265625 0 L 21.265625 -2.75 L 21.171875 -2.75 C 19.085938 -0.4375 16.429688 0.71875 13.203125 0.71875 C 9.691406 0.71875 6.796875 -0.523438 4.515625 -3.015625 Z M 11.65625 -16.28125 C 10.5625 -15.207031 10.015625 -13.832031 10.015625 -12.15625 C 10.015625 -10.476562 10.535156 -9.109375 11.578125 -8.046875 C 12.628906 -6.984375 14.007812 -6.453125 15.71875 -6.453125 C 17.363281 -6.453125 18.71875 -6.988281 19.78125 -8.0625 C 20.84375 -9.144531 21.375 -10.507812 21.375 -12.15625 C 21.375 -13.832031 20.828125 -15.207031 19.734375 -16.28125 C 18.640625 -17.363281 17.300781 -17.90625 15.71875 -17.90625 C 14.101562 -17.90625 12.75 -17.363281 11.65625 -16.28125 Z M 11.65625 -16.28125 "/></g></g></g><g fill="#000000" fill-opacity="1"><g transform="translate(70.749368, 125.559609)"><g><path d="M 13.4375 -25.078125 C 14.832031 -25.078125 16.207031 -24.914062 17.5625 -24.59375 C 18.925781 -24.28125 19.941406 -23.960938 20.609375 -23.640625 L 21.609375 -23.171875 L 18.84375 -17.671875 C 16.945312 -18.679688 15.144531 -19.1875 13.4375 -19.1875 C 12.488281 -19.1875 11.816406 -19.082031 11.421875 -18.875 C 11.023438 -18.664062 10.828125 -18.28125 10.828125 -17.71875 C 10.828125 -17.582031 10.84375 -17.453125 10.875 -17.328125 C 10.90625 -17.203125 10.96875 -17.082031 11.0625 -16.96875 C 11.15625 -16.863281 11.238281 -16.769531 11.3125 -16.6875 C 11.394531 -16.613281 11.53125 -16.523438 11.71875 -16.421875 C 11.914062 -16.328125 12.066406 -16.253906 12.171875 -16.203125 C 12.285156 -16.160156 12.46875 -16.09375 12.71875 -16 C 12.976562 -15.90625 13.171875 -15.832031 13.296875 -15.78125 C 13.421875 -15.738281 13.632812 -15.671875 13.9375 -15.578125 C 14.238281 -15.484375 14.46875 -15.421875 14.625 -15.390625 C 15.601562 -15.097656 16.457031 -14.773438 17.1875 -14.421875 C 17.914062 -14.078125 18.679688 -13.601562 19.484375 -13 C 20.296875 -12.40625 20.921875 -11.648438 21.359375 -10.734375 C 21.804688 -9.816406 22.03125 -8.769531 22.03125 -7.59375 C 22.03125 -2.050781 18.1875 0.71875 10.5 0.71875 C 8.75 0.71875 7.09375 0.445312 5.53125 -0.09375 C 3.96875 -0.632812 2.835938 -1.171875 2.140625 -1.703125 L 1.09375 -2.5625 L 4.515625 -8.3125 C 4.765625 -8.09375 5.09375 -7.832031 5.5 -7.53125 C 5.914062 -7.226562 6.660156 -6.816406 7.734375 -6.296875 C 8.816406 -5.773438 9.753906 -5.515625 10.546875 -5.515625 C 12.285156 -5.515625 13.15625 -6.097656 13.15625 -7.265625 C 13.15625 -7.804688 12.929688 -8.222656 12.484375 -8.515625 C 12.046875 -8.816406 11.296875 -9.15625 10.234375 -9.53125 C 9.171875 -9.914062 8.335938 -10.269531 7.734375 -10.59375 C 6.210938 -11.382812 5.007812 -12.273438 4.125 -13.265625 C 3.238281 -14.265625 2.796875 -15.585938 2.796875 -17.234375 C 2.796875 -19.703125 3.753906 -21.625 5.671875 -23 C 7.585938 -24.382812 10.175781 -25.078125 13.4375 -25.078125 Z M 13.4375 -25.078125 "/></g></g></g><g fill="#000000" fill-opacity="1"><g transform="translate(91.73973, 125.559609)"><g><path d="M 27.5 -11.015625 L 9.828125 -11.015625 C 9.828125 -9.304688 10.378906 -8.039062 11.484375 -7.21875 C 12.597656 -6.394531 13.800781 -5.984375 15.09375 -5.984375 C 16.457031 -5.984375 17.535156 -6.164062 18.328125 -6.53125 C 19.117188 -6.894531 20.019531 -7.613281 21.03125 -8.6875 L 27.109375 -5.65625 C 24.578125 -1.40625 20.367188 0.71875 14.484375 0.71875 C 10.804688 0.71875 7.65625 -0.539062 5.03125 -3.0625 C 2.40625 -5.582031 1.09375 -8.613281 1.09375 -12.15625 C 1.09375 -15.695312 2.40625 -18.734375 5.03125 -21.265625 C 7.65625 -23.804688 10.804688 -25.078125 14.484375 -25.078125 C 18.347656 -25.078125 21.488281 -23.957031 23.90625 -21.71875 C 26.332031 -19.488281 27.546875 -16.300781 27.546875 -12.15625 C 27.546875 -11.582031 27.53125 -11.203125 27.5 -11.015625 Z M 10.0625 -15.671875 L 19.328125 -15.671875 C 19.140625 -16.929688 18.640625 -17.898438 17.828125 -18.578125 C 17.023438 -19.265625 15.988281 -19.609375 14.71875 -19.609375 C 13.320312 -19.609375 12.210938 -19.242188 11.390625 -18.515625 C 10.566406 -17.785156 10.125 -16.835938 10.0625 -15.671875 Z M 10.0625 -15.671875 "/></g></g></g><g fill="#000000" fill-opacity="1"><g transform="translate(118.001425, 125.559609)"><g><path d="M 4.515625 -3.015625 C 2.234375 -5.503906 1.09375 -8.550781 1.09375 -12.15625 C 1.09375 -15.757812 2.234375 -18.8125 4.515625 -21.3125 C 6.796875 -23.820312 9.691406 -25.078125 13.203125 -25.078125 C 16.429688 -25.078125 19.085938 -24.0625 21.171875 -22.03125 L 21.171875 -40.84375 L 29.578125 -40.84375 L 29.578125 0 L 21.265625 0 L 21.265625 -2.75 L 21.171875 -2.75 C 19.085938 -0.4375 16.429688 0.71875 13.203125 0.71875 C 9.691406 0.71875 6.796875 -0.523438 4.515625 -3.015625 Z M 11.65625 -16.28125 C 10.5625 -15.207031 10.015625 -13.832031 10.015625 -12.15625 C 10.015625 -10.476562 10.535156 -9.109375 11.578125 -8.046875 C 12.628906 -6.984375 14.007812 -6.453125 15.71875 -6.453125 C 17.363281 -6.453125 18.71875 -6.988281 19.78125 -8.0625 C 20.84375 -9.144531 21.375 -10.507812 21.375 -12.15625 C 21.375 -13.832031 20.828125 -15.207031 19.734375 -16.28125 C 18.640625 -17.363281 17.300781 -17.90625 15.71875 -17.90625 C 14.101562 -17.90625 12.75 -17.363281 11.65625 -16.28125 Z M 11.65625 -16.28125 "/></g></g></g><g fill="#000000" fill-opacity="1"><g transform="translate(11.434977, 170.674603)"><g><path d="M 2.84375 -39.171875 L 16.859375 -39.171875 C 20.617188 -39.171875 23.6875 -38.164062 26.0625 -36.15625 C 28.4375 -34.144531 29.625 -31.273438 29.625 -27.546875 C 29.625 -24.660156 28.90625 -22.242188 27.46875 -20.296875 C 26.03125 -18.347656 24.078125 -16.976562 21.609375 -16.1875 L 35.09375 0 L 23.75 0 L 11.78125 -15.484375 L 11.78125 0 L 2.84375 0 Z M 11.78125 -21.796875 L 12.828125 -21.796875 C 13.648438 -21.796875 14.34375 -21.8125 14.90625 -21.84375 C 15.476562 -21.875 16.128906 -21.984375 16.859375 -22.171875 C 17.585938 -22.359375 18.171875 -22.625 18.609375 -22.96875 C 19.054688 -23.320312 19.4375 -23.832031 19.75 -24.5 C 20.070312 -25.164062 20.234375 -25.972656 20.234375 -26.921875 C 20.234375 -27.867188 20.070312 -28.675781 19.75 -29.34375 C 19.4375 -30.007812 19.054688 -30.515625 18.609375 -30.859375 C 18.171875 -31.210938 17.585938 -31.484375 16.859375 -31.671875 C 16.128906 -31.859375 15.476562 -31.96875 14.90625 -32 C 14.34375 -32.03125 13.648438 -32.046875 12.828125 -32.046875 L 11.78125 -32.046875 Z M 11.78125 -21.796875 "/></g></g></g><g fill="#000000" fill-opacity="1"><g transform="translate(43.06299, 170.674603)"><g><path d="M 27.5 -11.015625 L 9.828125 -11.015625 C 9.828125 -9.304688 10.378906 -8.039062 11.484375 -7.21875 C 12.597656 -6.394531 13.800781 -5.984375 15.09375 -5.984375 C 16.457031 -5.984375 17.535156 -6.164062 18.328125 -6.53125 C 19.117188 -6.894531 20.019531 -7.613281 21.03125 -8.6875 L 27.109375 -5.65625 C 24.578125 -1.40625 20.367188 0.71875 14.484375 0.71875 C 10.804688 0.71875 7.65625 -0.539062 5.03125 -3.0625 C 2.40625 -5.582031 1.09375 -8.613281 1.09375 -12.15625 C 1.09375 -15.695312 2.40625 -18.734375 5.03125 -21.265625 C 7.65625 -23.804688 10.804688 -25.078125 14.484375 -25.078125 C 18.347656 -25.078125 21.488281 -23.957031 23.90625 -21.71875 C 26.332031 -19.488281 27.546875 -16.300781 27.546875 -12.15625 C 27.546875 -11.582031 27.53125 -11.203125 27.5 -11.015625 Z M 10.0625 -15.671875 L 19.328125 -15.671875 C 19.140625 -16.929688 18.640625 -17.898438 17.828125 -18.578125 C 17.023438 -19.265625 15.988281 -19.609375 14.71875 -19.609375 C 13.320312 -19.609375 12.210938 -19.242188 11.390625 -18.515625 C 10.566406 -17.785156 10.125 -16.835938 10.0625 -15.671875 Z M 10.0625 -15.671875 "/></g></g></g><g fill="#000000" fill-opacity="1"><g transform="translate(69.324685, 170.674603)"><g><path d="M 15.8125 -18.1875 C 14.226562 -18.1875 12.863281 -17.597656 11.71875 -16.421875 C 10.582031 -15.253906 10.015625 -13.847656 10.015625 -12.203125 C 10.015625 -10.523438 10.582031 -9.097656 11.71875 -7.921875 C 12.863281 -6.753906 14.226562 -6.171875 15.8125 -6.171875 C 16.570312 -6.171875 17.289062 -6.265625 17.96875 -6.453125 C 18.65625 -6.648438 19.15625 -6.84375 19.46875 -7.03125 L 19.890625 -7.3125 L 22.75 -1.46875 C 22.519531 -1.3125 22.207031 -1.113281 21.8125 -0.875 C 21.414062 -0.632812 20.515625 -0.3125 19.109375 0.09375 C 17.703125 0.507812 16.191406 0.71875 14.578125 0.71875 C 11.003906 0.71875 7.863281 -0.539062 5.15625 -3.0625 C 2.445312 -5.582031 1.09375 -8.597656 1.09375 -12.109375 C 1.09375 -15.648438 2.445312 -18.695312 5.15625 -21.25 C 7.863281 -23.800781 11.003906 -25.078125 14.578125 -25.078125 C 16.191406 -25.078125 17.675781 -24.882812 19.03125 -24.5 C 20.394531 -24.125 21.363281 -23.742188 21.9375 -23.359375 L 22.75 -22.796875 L 19.890625 -17.046875 C 18.847656 -17.804688 17.488281 -18.1875 15.8125 -18.1875 Z M 15.8125 -18.1875 "/></g></g></g><g fill="#000000" fill-opacity="1"><g transform="translate(90.267558, 170.674603)"><g><path d="M 5.15625 -2.890625 C 2.445312 -5.296875 1.09375 -8.382812 1.09375 -12.15625 C 1.09375 -15.925781 2.5 -19.019531 5.3125 -21.4375 C 8.132812 -23.863281 11.617188 -25.078125 15.765625 -25.078125 C 19.847656 -25.078125 23.289062 -23.859375 26.09375 -21.421875 C 28.894531 -18.984375 30.296875 -15.894531 30.296875 -12.15625 C 30.296875 -8.414062 28.925781 -5.332031 26.1875 -2.90625 C 23.445312 -0.488281 19.972656 0.71875 15.765625 0.71875 C 11.398438 0.71875 7.863281 -0.484375 5.15625 -2.890625 Z M 11.65625 -16.28125 C 10.5625 -15.207031 10.015625 -13.832031 10.015625 -12.15625 C 10.015625 -10.476562 10.535156 -9.109375 11.578125 -8.046875 C 12.628906 -6.984375 14.007812 -6.453125 15.71875 -6.453125 C 17.363281 -6.453125 18.71875 -6.988281 19.78125 -8.0625 C 20.84375 -9.144531 21.375 -10.507812 21.375 -12.15625 C 21.375 -13.832031 20.828125 -15.207031 19.734375 -16.28125 C 18.640625 -17.363281 17.300781 -17.90625 15.71875 -17.90625 C 14.101562 -17.90625 12.75 -17.363281 11.65625 -16.28125 Z M 11.65625 -16.28125 "/></g></g></g><g fill="#000000" fill-opacity="1"><g transform="translate(119.28364, 170.674603)"><g><path d="M 2.84375 0 L 2.84375 -24.359375 L 11.25 -24.359375 L 11.25 -21.796875 L 11.34375 -21.796875 C 13.53125 -23.984375 15.859375 -25.078125 18.328125 -25.078125 C 20.097656 -25.078125 21.757812 -24.710938 23.3125 -23.984375 C 24.863281 -23.253906 26.035156 -22.128906 26.828125 -20.609375 C 29.296875 -23.585938 31.988281 -25.078125 34.90625 -25.078125 C 37.5 -25.078125 39.726562 -24.347656 41.59375 -22.890625 C 43.457031 -21.429688 44.390625 -19.148438 44.390625 -16.046875 L 44.390625 0 L 36 0 L 36 -13.765625 C 36 -15.066406 35.640625 -16.148438 34.921875 -17.015625 C 34.210938 -17.890625 33.144531 -18.328125 31.71875 -18.328125 C 30.488281 -18.328125 29.546875 -17.953125 28.890625 -17.203125 C 28.242188 -16.460938 27.890625 -15.570312 27.828125 -14.53125 L 27.828125 0 L 19.421875 0 L 19.421875 -13.765625 C 19.421875 -15.066406 19.0625 -16.148438 18.34375 -17.015625 C 17.632812 -17.890625 16.566406 -18.328125 15.140625 -18.328125 C 13.847656 -18.328125 12.875 -17.921875 12.21875 -17.109375 C 11.570312 -16.304688 11.25 -15.351562 11.25 -14.25 L 11.25 0 Z M 2.84375 0 "/></g></g></g><g fill="#000000" fill-opacity="1"><g transform="translate(163.686321, 170.674603)"><g><path d="M 2.84375 0 L 2.84375 -24.359375 L 11.25 -24.359375 L 11.25 -21.796875 L 11.34375 -21.796875 C 13.53125 -23.984375 15.859375 -25.078125 18.328125 -25.078125 C 20.097656 -25.078125 21.757812 -24.710938 23.3125 -23.984375 C 24.863281 -23.253906 26.035156 -22.128906 26.828125 -20.609375 C 29.296875 -23.585938 31.988281 -25.078125 34.90625 -25.078125 C 37.5 -25.078125 39.726562 -24.347656 41.59375 -22.890625 C 43.457031 -21.429688 44.390625 -19.148438 44.390625 -16.046875 L 44.390625 0 L 36 0 L 36 -13.765625 C 36 -15.066406 35.640625 -16.148438 34.921875 -17.015625 C 34.210938 -17.890625 33.144531 -18.328125 31.71875 -18.328125 C 30.488281 -18.328125 29.546875 -17.953125 28.890625 -17.203125 C 28.242188 -16.460938 27.890625 -15.570312 27.828125 -14.53125 L 27.828125 0 L 19.421875 0 L 19.421875 -13.765625 C 19.421875 -15.066406 19.0625 -16.148438 18.34375 -17.015625 C 17.632812 -17.890625 16.566406 -18.328125 15.140625 -18.328125 C 13.847656 -18.328125 12.875 -17.921875 12.21875 -17.109375 C 11.570312 -16.304688 11.25 -15.351562 11.25 -14.25 L 11.25 0 Z M 2.84375 0 "/></g></g></g><g fill="#000000" fill-opacity="1"><g transform="translate(208.089001, 170.674603)"><g><path d="M 27.5 -11.015625 L 9.828125 -11.015625 C 9.828125 -9.304688 10.378906 -8.039062 11.484375 -7.21875 C 12.597656 -6.394531 13.800781 -5.984375 15.09375 -5.984375 C 16.457031 -5.984375 17.535156 -6.164062 18.328125 -6.53125 C 19.117188 -6.894531 20.019531 -7.613281 21.03125 -8.6875 L 27.109375 -5.65625 C 24.578125 -1.40625 20.367188 0.71875 14.484375 0.71875 C 10.804688 0.71875 7.65625 -0.539062 5.03125 -3.0625 C 2.40625 -5.582031 1.09375 -8.613281 1.09375 -12.15625 C 1.09375 -15.695312 2.40625 -18.734375 5.03125 -21.265625 C 7.65625 -23.804688 10.804688 -25.078125 14.484375 -25.078125 C 18.347656 -25.078125 21.488281 -23.957031 23.90625 -21.71875 C 26.332031 -19.488281 27.546875 -16.300781 27.546875 -12.15625 C 27.546875 -11.582031 27.53125 -11.203125 27.5 -11.015625 Z M 10.0625 -15.671875 L 19.328125 -15.671875 C 19.140625 -16.929688 18.640625 -17.898438 17.828125 -18.578125 C 17.023438 -19.265625 15.988281 -19.609375 14.71875 -19.609375 C 13.320312 -19.609375 12.210938 -19.242188 11.390625 -18.515625 C 10.566406 -17.785156 10.125 -16.835938 10.0625 -15.671875 Z M 10.0625 -15.671875 "/></g></g></g><g fill="#000000" fill-opacity="1"><g transform="translate(234.350691, 170.674603)"><g><path d="M 2.84375 0 L 2.84375 -24.359375 L 11.25 -24.359375 L 11.25 -21.796875 L 11.34375 -21.796875 C 13.53125 -23.984375 15.859375 -25.078125 18.328125 -25.078125 C 19.535156 -25.078125 20.726562 -24.914062 21.90625 -24.59375 C 23.09375 -24.28125 24.234375 -23.789062 25.328125 -23.125 C 26.421875 -22.457031 27.304688 -21.515625 27.984375 -20.296875 C 28.671875 -19.078125 29.015625 -17.660156 29.015625 -16.046875 L 29.015625 0 L 20.609375 0 L 20.609375 -13.765625 C 20.609375 -15.035156 20.203125 -16.144531 19.390625 -17.09375 C 18.585938 -18.039062 17.535156 -18.515625 16.234375 -18.515625 C 14.972656 -18.515625 13.828125 -18.023438 12.796875 -17.046875 C 11.765625 -16.066406 11.25 -14.972656 11.25 -13.765625 L 11.25 0 Z M 2.84375 0 "/></g></g></g><g fill="#000000" fill-opacity="1"><g transform="translate(263.366789, 170.674603)"><g><path d="M 4.515625 -3.015625 C 2.234375 -5.503906 1.09375 -8.550781 1.09375 -12.15625 C 1.09375 -15.757812 2.234375 -18.8125 4.515625 -21.3125 C 6.796875 -23.820312 9.691406 -25.078125 13.203125 -25.078125 C 16.429688 -25.078125 19.085938 -24.0625 21.171875 -22.03125 L 21.171875 -40.84375 L 29.578125 -40.84375 L 29.578125 0 L 21.265625 0 L 21.265625 -2.75 L 21.171875 -2.75 C 19.085938 -0.4375 16.429688 0.71875 13.203125 0.71875 C 9.691406 0.71875 6.796875 -0.523438 4.515625 -3.015625 Z M 11.65625 -16.28125 C 10.5625 -15.207031 10.015625 -13.832031 10.015625 -12.15625 C 10.015625 -10.476562 10.535156 -9.109375 11.578125 -8.046875 C 12.628906 -6.984375 14.007812 -6.453125 15.71875 -6.453125 C 17.363281 -6.453125 18.71875 -6.988281 19.78125 -8.0625 C 20.84375 -9.144531 21.375 -10.507812 21.375 -12.15625 C 21.375 -13.832031 20.828125 -15.207031 19.734375 -16.28125 C 18.640625 -17.363281 17.300781 -17.90625 15.71875 -17.90625 C 14.101562 -17.90625 12.75 -17.363281 11.65625 -16.28125 Z M 11.65625 -16.28125 "/></g></g></g><g fill="#000000" fill-opacity="1"><g transform="translate(293.427641, 170.674603)"><g><path d="M 27.5 -11.015625 L 9.828125 -11.015625 C 9.828125 -9.304688 10.378906 -8.039062 11.484375 -7.21875 C 12.597656 -6.394531 13.800781 -5.984375 15.09375 -5.984375 C 16.457031 -5.984375 17.535156 -6.164062 18.328125 -6.53125 C 19.117188 -6.894531 20.019531 -7.613281 21.03125 -8.6875 L 27.109375 -5.65625 C 24.578125 -1.40625 20.367188 0.71875 14.484375 0.71875 C 10.804688 0.71875 7.65625 -0.539062 5.03125 -3.0625 C 2.40625 -5.582031 1.09375 -8.613281 1.09375 -12.15625 C 1.09375 -15.695312 2.40625 -18.734375 5.03125 -21.265625 C 7.65625 -23.804688 10.804688 -25.078125 14.484375 -25.078125 C 18.347656 -25.078125 21.488281 -23.957031 23.90625 -21.71875 C 26.332031 -19.488281 27.546875 -16.300781 27.546875 -12.15625 C 27.546875 -11.582031 27.53125 -11.203125 27.5 -11.015625 Z M 10.0625 -15.671875 L 19.328125 -15.671875 C 19.140625 -16.929688 18.640625 -17.898438 17.828125 -18.578125 C 17.023438 -19.265625 15.988281 -19.609375 14.71875 -19.609375 C 13.320312 -19.609375 12.210938 -19.242188 11.390625 -18.515625 C 10.566406 -17.785156 10.125 -16.835938 10.0625 -15.671875 Z M 10.0625 -15.671875 "/></g></g></g><g fill="#000000" fill-opacity="1"><g transform="translate(319.689331, 170.674603)"><g><path d="M 2.84375 0 L 2.84375 -24.359375 L 11.25 -24.359375 L 11.25 -20.84375 L 11.34375 -20.84375 C 11.40625 -20.96875 11.507812 -21.125 11.65625 -21.3125 C 11.800781 -21.507812 12.109375 -21.84375 12.578125 -22.3125 C 13.054688 -22.789062 13.5625 -23.21875 14.09375 -23.59375 C 14.632812 -23.976562 15.332031 -24.320312 16.1875 -24.625 C 17.039062 -24.925781 17.910156 -25.078125 18.796875 -25.078125 C 19.722656 -25.078125 20.628906 -24.945312 21.515625 -24.6875 C 22.398438 -24.4375 23.046875 -24.1875 23.453125 -23.9375 L 24.125 -23.546875 L 20.609375 -16.421875 C 19.566406 -17.316406 18.109375 -17.765625 16.234375 -17.765625 C 15.222656 -17.765625 14.351562 -17.539062 13.625 -17.09375 C 12.894531 -16.644531 12.378906 -16.101562 12.078125 -15.46875 C 11.785156 -14.84375 11.570312 -14.304688 11.4375 -13.859375 C 11.3125 -13.421875 11.25 -13.078125 11.25 -12.828125 L 11.25 0 Z M 2.84375 0 "/></g></g></g><g fill="#000000" fill-opacity="1"><g transform="translate(340.962058, 170.674603)"><g/></g></g><g clip-path="url(#7520d718e0)"><g clip-path="url(#e082fdcfd0)"><path fill="#ffb000" d="M 166.050781 82.800781 L 196.050781 82.800781 L 196.050781 112.050781 L 166.050781 112.050781 Z M 166.050781 82.800781 " fill-opacity="1" fill-rule="nonzero"/></g></g><g clip-path="url(#7207b3c957)"><g clip-path="url(#fe9027c524)"><path fill="#ffb000" d="M 167.851562 94.800781 L 187.351562 94.800781 L 187.351562 114.300781 L 167.851562 114.300781 Z M 167.851562 94.800781 " fill-opacity="1" fill-rule="nonzero"/></g></g><g clip-path="url(#439e0fbd72)"><g clip-path="url(#7007ee40c6)"><path fill="#ffb000" d="M 176.023438 84.300781 L 199.273438 84.300781 L 199.273438 103.800781 L 176.023438 103.800781 Z M 176.023438 84.300781 " fill-opacity="1" fill-rule="nonzero"/></g></g><g clip-path="url(#df62b93618)"><g clip-path="url(#ae49484746)"><path fill="#ffb000" d="M 163.875 80.175781 L 197.625 80.175781 L 197.625 109.425781 L 163.875 109.425781 Z M 163.875 80.175781 " fill-opacity="1" fill-rule="nonzero"/></g></g><g clip-path="url(#d4ce2289d7)"><path fill="#231f20" d="M 242.777344 112.195312 C 243.421875 110.023438 243.746094 107.804688 243.742188 105.539062 C 243.765625 104.136719 243.664062 102.75 243.441406 101.367188 C 243.21875 99.988281 242.875 98.636719 242.410156 97.316406 C 241.945312 96 241.371094 94.730469 240.679688 93.515625 C 239.992188 92.296875 239.203125 91.152344 238.308594 90.078125 C 237.417969 89 236.4375 88.015625 235.367188 87.113281 C 234.300781 86.214844 233.164062 85.414062 231.953125 84.71875 C 230.742188 84.023438 229.480469 83.4375 228.167969 82.96875 C 226.855469 82.496094 225.511719 82.144531 224.132812 81.914062 C 222.757812 81.683594 221.375 81.578125 219.980469 81.59375 C 218.585938 81.609375 217.203125 81.75 215.832031 82.011719 C 214.460938 82.277344 213.125 82.660156 211.824219 83.160156 C 210.523438 83.664062 209.273438 84.277344 208.082031 85.003906 C 206.890625 85.726562 205.769531 86.554688 204.722656 87.476562 C 203.675781 88.402344 202.722656 89.414062 201.855469 90.511719 C 200.988281 91.605469 200.222656 92.769531 199.5625 94.003906 C 198.902344 95.234375 198.359375 96.515625 197.925781 97.847656 L 197.25 97.847656 C 197.238281 96.953125 197.152344 96.0625 196.988281 95.183594 C 196.824219 94.304688 196.585938 93.445312 196.269531 92.605469 C 195.957031 91.769531 195.570312 90.964844 195.117188 90.195312 C 194.660156 89.421875 194.144531 88.699219 193.5625 88.019531 C 192.980469 87.339844 192.347656 86.714844 191.65625 86.148438 C 190.964844 85.578125 190.234375 85.074219 189.453125 84.636719 C 188.675781 84.199219 187.867188 83.828125 187.023438 83.53125 C 186.183594 83.234375 185.320312 83.011719 184.441406 82.867188 C 183.558594 82.722656 182.671875 82.652344 181.78125 82.664062 C 180.886719 82.671875 180.003906 82.757812 179.125 82.925781 C 178.25 83.089844 177.390625 83.328125 176.554688 83.644531 C 175.722656 83.960938 174.917969 84.347656 174.152344 84.800781 C 173.382812 85.257812 172.660156 85.777344 171.980469 86.359375 C 171.304688 86.941406 170.683594 87.582031 170.117188 88.273438 C 169.550781 88.964844 169.046875 89.699219 168.609375 90.480469 C 168.171875 91.261719 167.804688 92.074219 167.507812 92.917969 C 167.210938 93.761719 166.992188 94.625 166.84375 95.507812 C 166.699219 96.390625 166.632812 97.28125 166.640625 98.175781 C 166.652344 99.070312 166.738281 99.960938 166.902344 100.839844 C 167.066406 101.71875 167.308594 102.578125 167.621094 103.417969 C 167.933594 104.253906 168.320312 105.058594 168.773438 105.828125 C 169.230469 106.597656 169.746094 107.324219 170.328125 108.003906 C 170.910156 108.683594 171.546875 109.308594 172.234375 109.875 C 172.925781 110.441406 173.660156 110.945312 174.4375 111.386719 C 173.597656 111.671875 172.789062 112.03125 172.011719 112.460938 C 171.238281 112.890625 170.503906 113.386719 169.816406 113.945312 C 169.125 114.503906 168.488281 115.121094 167.910156 115.792969 C 167.328125 116.464844 166.808594 117.179688 166.355469 117.945312 C 165.898438 118.707031 165.515625 119.503906 165.199219 120.335938 C 164.886719 121.167969 164.648438 122.019531 164.480469 122.894531 C 164.316406 123.769531 164.230469 124.652344 164.222656 125.539062 C 164.210938 126.429688 164.28125 127.3125 164.425781 128.191406 C 164.570312 129.066406 164.792969 129.925781 165.089844 130.761719 C 165.386719 131.601562 165.753906 132.40625 166.191406 133.179688 C 166.632812 133.953125 167.132812 134.679688 167.699219 135.363281 C 168.269531 136.050781 168.890625 136.679688 169.566406 137.253906 C 170.246094 137.828125 170.964844 138.335938 171.734375 138.78125 C 172.5 139.230469 173.300781 139.605469 174.132812 139.910156 C 174.96875 140.214844 175.820312 140.441406 176.695312 140.597656 C 177.566406 140.75 178.449219 140.824219 179.335938 140.824219 L 235.847656 140.824219 C 236.691406 140.824219 237.527344 140.753906 238.355469 140.617188 C 239.1875 140.476562 240 140.269531 240.792969 139.992188 C 241.589844 139.71875 242.355469 139.378906 243.09375 138.972656 C 243.835938 138.570312 244.535156 138.105469 245.195312 137.585938 C 245.859375 137.0625 246.472656 136.492188 247.039062 135.867188 C 247.605469 135.242188 248.117188 134.574219 248.570312 133.867188 C 249.027344 133.15625 249.417969 132.414062 249.75 131.636719 C 250.082031 130.859375 250.347656 130.0625 250.546875 129.242188 C 250.742188 128.421875 250.871094 127.589844 250.933594 126.75 C 250.992188 125.90625 250.984375 125.066406 250.902344 124.226562 C 250.824219 123.386719 250.671875 122.558594 250.457031 121.742188 C 250.238281 120.929688 249.953125 120.136719 249.605469 119.367188 C 249.253906 118.601562 248.84375 117.867188 248.371094 117.167969 C 247.898438 116.46875 247.371094 115.816406 246.792969 115.207031 C 246.210938 114.59375 245.582031 114.035156 244.910156 113.53125 C 244.234375 113.027344 243.523438 112.582031 242.777344 112.195312 Z M 169.992188 98.167969 C 169.96875 97.375 170.023438 96.589844 170.152344 95.804688 C 170.285156 95.023438 170.492188 94.261719 170.773438 93.519531 C 171.054688 92.777344 171.40625 92.066406 171.824219 91.394531 C 172.246094 90.722656 172.726562 90.097656 173.269531 89.519531 C 173.8125 88.941406 174.40625 88.421875 175.050781 87.964844 C 175.695312 87.503906 176.378906 87.109375 177.101562 86.785156 C 177.824219 86.460938 178.570312 86.207031 179.34375 86.03125 C 180.113281 85.851562 180.894531 85.753906 181.6875 85.730469 C 182.476562 85.707031 183.265625 85.761719 184.042969 85.890625 C 184.824219 86.023438 185.585938 86.230469 186.324219 86.511719 C 187.066406 86.792969 187.769531 87.148438 188.441406 87.566406 C 189.113281 87.988281 189.734375 88.472656 190.3125 89.015625 C 190.886719 89.5625 191.40625 90.15625 191.863281 90.804688 C 192.324219 91.453125 192.714844 92.136719 193.039062 92.859375 C 193.363281 93.585938 193.613281 94.335938 193.789062 95.109375 C 193.96875 95.882812 194.066406 96.664062 194.089844 97.457031 C 193.246094 97.492188 192.410156 97.601562 191.585938 97.78125 C 190.757812 97.960938 189.957031 98.214844 189.175781 98.539062 C 188.394531 98.863281 187.644531 99.253906 186.933594 99.707031 C 186.21875 100.164062 185.550781 100.679688 184.929688 101.253906 C 184.308594 101.828125 183.742188 102.453125 183.226562 103.125 C 182.714844 103.800781 182.265625 104.515625 181.878906 105.269531 C 181.492188 106.023438 181.175781 106.804688 180.925781 107.617188 C 180.675781 108.425781 180.5 109.25 180.398438 110.09375 C 179.683594 109.996094 178.984375 109.835938 178.300781 109.613281 C 177.613281 109.390625 176.953125 109.109375 176.320312 108.765625 C 175.683594 108.425781 175.085938 108.027344 174.523438 107.578125 C 173.960938 107.128906 173.441406 106.632812 172.964844 106.089844 C 172.492188 105.542969 172.070312 104.960938 171.699219 104.34375 C 171.328125 103.722656 171.015625 103.074219 170.761719 102.398438 C 170.507812 101.722656 170.316406 101.03125 170.1875 100.320312 C 170.058594 99.609375 169.992188 98.890625 169.992188 98.167969 Z M 235.847656 137.59375 L 179.335938 137.59375 C 178.527344 137.632812 177.722656 137.59375 176.921875 137.472656 C 176.125 137.351562 175.34375 137.148438 174.585938 136.867188 C 173.828125 136.585938 173.105469 136.234375 172.417969 135.804688 C 171.730469 135.375 171.09375 134.882812 170.507812 134.324219 C 169.921875 133.765625 169.394531 133.152344 168.933594 132.488281 C 168.472656 131.820312 168.082031 131.117188 167.761719 130.371094 C 167.441406 129.625 167.199219 128.855469 167.039062 128.0625 C 166.875 127.265625 166.792969 126.464844 166.792969 125.652344 C 166.792969 124.839844 166.875 124.039062 167.039062 123.242188 C 167.199219 122.449219 167.441406 121.679688 167.761719 120.933594 C 168.082031 120.1875 168.472656 119.484375 168.933594 118.816406 C 169.394531 118.152344 169.921875 117.539062 170.507812 116.980469 C 171.09375 116.421875 171.730469 115.929688 172.417969 115.5 C 173.105469 115.074219 173.828125 114.71875 174.585938 114.4375 C 175.34375 114.15625 176.125 113.953125 176.921875 113.832031 C 177.722656 113.710938 178.527344 113.671875 179.335938 113.710938 L 181.816406 113.710938 C 182.121094 113.695312 182.390625 113.589844 182.621094 113.390625 C 182.921875 113.257812 183.164062 113.050781 183.34375 112.777344 C 183.523438 112.503906 183.617188 112.199219 183.621094 111.871094 C 183.621094 111.617188 183.554688 111.378906 183.425781 111.160156 C 183.453125 110.726562 183.503906 110.296875 183.582031 109.867188 C 183.660156 109.441406 183.761719 109.019531 183.886719 108.605469 C 184.015625 108.1875 184.164062 107.78125 184.339844 107.386719 C 184.511719 106.988281 184.710938 106.601562 184.929688 106.226562 C 185.148438 105.851562 185.386719 105.492188 185.648438 105.144531 C 185.910156 104.796875 186.191406 104.46875 186.492188 104.15625 C 186.789062 103.84375 187.105469 103.546875 187.441406 103.269531 C 187.777344 102.996094 188.125 102.738281 188.488281 102.503906 C 188.851562 102.269531 189.230469 102.054688 189.617188 101.867188 C 190.007812 101.675781 190.40625 101.507812 190.816406 101.363281 C 191.222656 101.21875 191.640625 101.101562 192.0625 101.003906 C 192.484375 100.910156 192.910156 100.839844 193.339844 100.792969 C 193.773438 100.75 194.203125 100.730469 194.636719 100.734375 C 195.070312 100.742188 195.5 100.773438 195.929688 100.828125 C 196.359375 100.886719 196.785156 100.96875 197.203125 101.074219 C 197.625 101.179688 198.035156 101.3125 198.441406 101.464844 C 198.882812 101.667969 199.320312 101.667969 199.761719 101.464844 C 200.179688 101.25 200.445312 100.917969 200.566406 100.464844 C 200.886719 99.285156 201.308594 98.144531 201.832031 97.042969 C 202.355469 95.941406 202.972656 94.894531 203.683594 93.902344 C 204.394531 92.910156 205.191406 91.992188 206.066406 91.144531 C 206.941406 90.296875 207.886719 89.53125 208.902344 88.855469 C 209.914062 88.179688 210.980469 87.597656 212.097656 87.113281 C 213.214844 86.628906 214.367188 86.246094 215.550781 85.96875 C 216.738281 85.691406 217.941406 85.523438 219.15625 85.464844 C 220.371094 85.402344 221.582031 85.453125 222.792969 85.609375 C 224 85.769531 225.183594 86.035156 226.34375 86.40625 C 227.503906 86.777344 228.621094 87.25 229.695312 87.824219 C 230.769531 88.398438 231.785156 89.0625 232.742188 89.820312 C 233.695312 90.578125 234.578125 91.414062 235.382812 92.332031 C 236.1875 93.246094 236.90625 94.226562 237.535156 95.273438 C 238.164062 96.316406 238.695312 97.410156 239.128906 98.554688 C 239.5625 99.695312 239.890625 100.867188 240.113281 102.066406 C 240.335938 103.265625 240.449219 104.476562 240.457031 105.699219 C 240.453125 108.101562 240.035156 110.425781 239.199219 112.679688 C 239.128906 112.878906 239.101562 113.082031 239.109375 113.292969 C 239.121094 113.503906 239.167969 113.707031 239.253906 113.898438 C 239.34375 114.09375 239.460938 114.261719 239.613281 114.40625 C 239.765625 114.554688 239.9375 114.667969 240.132812 114.746094 C 240.769531 115 241.382812 115.308594 241.964844 115.667969 C 242.550781 116.027344 243.101562 116.433594 243.613281 116.886719 C 244.128906 117.34375 244.601562 117.839844 245.027344 118.375 C 245.457031 118.910156 245.835938 119.480469 246.167969 120.082031 C 246.496094 120.6875 246.773438 121.3125 246.996094 121.960938 C 247.21875 122.613281 247.382812 123.277344 247.492188 123.957031 C 247.597656 124.636719 247.648438 125.320312 247.636719 126.007812 C 247.628906 126.695312 247.558594 127.375 247.429688 128.050781 C 247.304688 128.726562 247.117188 129.386719 246.878906 130.03125 C 246.636719 130.671875 246.339844 131.292969 245.992188 131.882812 C 245.644531 132.476562 245.25 133.035156 244.804688 133.558594 C 244.359375 134.082031 243.875 134.5625 243.347656 135.003906 C 242.820312 135.441406 242.257812 135.832031 241.664062 136.175781 C 241.070312 136.515625 240.449219 136.804688 239.804688 137.039062 C 239.160156 137.273438 238.5 137.449219 237.824219 137.570312 C 237.148438 137.691406 236.46875 137.753906 235.785156 137.753906 Z M 235.847656 137.59375 " fill-opacity="1" fill-rule="nonzero"/></g></svg>